HIERARCHY
ROOT hip
{
  OFFSET 0.00112043 5.09927 -9.65472
  CHANNELS 6 Xposition Yposition Zposition Zrotation Xrotation Yrotation
  JOINT abdomen
  {
    OFFSET 0 -1.186 -1.5018
    CHANNELS 3 Zrotation Xrotation Yrotation
    JOINT abdomen2
    {
      OFFSET 0 9.964 0.2134
      CHANNELS 3 Zrotation Xrotation Yrotation
      JOINT chest
      {
        OFFSET 0 13.134 -3.2573
        CHANNELS 3 Zrotation Xrotation Yrotation
        JOINT neck
        {
          OFFSET 0 20.686 -1.6905
          CHANNELS 3 Zrotation Xrotation Yrotation
          JOINT head
          {
            OFFSET 0 7.238 -0.1237
            CHANNELS 3 Zrotation Xrotation Yrotation
            End Site
            {
              OFFSET 0 0 0
            }
          }
        }
        JOINT lCollar
        {
          OFFSET 1.7069 20.075 5.0056
          CHANNELS 3 Zrotation Xrotation Yrotation
          JOINT lShldr
          {
            OFFSET 13.6458 -0.047 -4.849
            CHANNELS 3 Zrotation Xrotation Yrotation
            JOINT lForeArm
            {
              OFFSET 28.3255 -0.9759 2.2888
              CHANNELS 3 Zrotation Xrotation Yrotation
              JOINT lHand
              {
                OFFSET 22.1583 -0.53 10.8316
                CHANNELS 3 Zrotation Xrotation Yrotation
                JOINT lThumb1
                {
                  OFFSET 0.786 0.112 2.5817
                  CHANNELS 3 Zrotation Xrotation Yrotation
                  JOINT lThumb2
                  {
                    OFFSET 0.3601 -0.878 4.2331
                    CHANNELS 3 Zrotation Xrotation Yrotation
                    JOINT lThumb2_End
                    {
                      OFFSET 1.8127 -1.216 2.2227
                      CHANNELS 3 Zrotation Xrotation Yrotation
                      End Site
                      {
                        OFFSET 0.0181 -0.0122 0.0222
                      }
                    }
                  }
                }
                JOINT lCarpal1
                {
                  OFFSET 0.9571 1.114 1.7695
                  CHANNELS 3 Zrotation Xrotation Yrotation
                  JOINT lIndex1
                  {
                    OFFSET 4.1246 0.487 4.1451
                    CHANNELS 3 Zrotation Xrotation Yrotation
                    JOINT lIndex2
                    {
                      OFFSET 3.4052 -1.454 2.7682
                      CHANNELS 3 Zrotation Xrotation Yrotation
                      JOINT lIndex2_End
                      {
                        OFFSET 1.4531 -1.795 1.2713
                        CHANNELS 3 Zrotation Xrotation Yrotation
                        End Site
                        {
                          OFFSET 0.0145 -0.0179 0.0127
                        }
                      }
                    }
                  }
                  JOINT lMid1
                  {
                    OFFSET 5.6954 0.21 2.1184
                    CHANNELS 3 Zrotation Xrotation Yrotation
                    JOINT lMid2
                    {
                      OFFSET 3.9766 -1.54 2.3863
                      CHANNELS 3 Zrotation Xrotation Yrotation
                      JOINT lMid2_End
                      {
                        OFFSET 1.4042 -1.926 1.125
                        CHANNELS 3 Zrotation Xrotation Yrotation
                        End Site
                        {
                          OFFSET 0.014 -0.0193 0.0113
                        }
                      }
                    }
                  }
                }
                JOINT lCarpal2
                {
                  OFFSET 2.0956 0.66 -0.3894
                  CHANNELS 3 Zrotation Xrotation Yrotation
                  JOINT lRing1
                  {
                    OFFSET 5.0395 -0.09 2.4971
                    CHANNELS 3 Zrotation Xrotation Yrotation
                    JOINT lRing2
                    {
                      OFFSET 3.7921 -1.552 1.4806
                      CHANNELS 3 Zrotation Xrotation Yrotation
                      JOINT lRing2_End
                      {
                        OFFSET 1.4655 -1.808 0.9609
                        CHANNELS 3 Zrotation Xrotation Yrotation
                        End Site
                        {
                          OFFSET 0.0147 -0.0181 0.0096
                        }
                      }
                    }
                  }
                  JOINT lPinky1
                  {
                    OFFSET 4.9141 -1.269 0.3591
                    CHANNELS 3 Zrotation Xrotation Yrotation
                    JOINT lPinky2
                    {
                      OFFSET 3.1477 -1.685 0.8462
                      CHANNELS 3 Zrotation Xrotation Yrotation
                      JOINT lPinky2_End
                      {
                        OFFSET 0.8055 -1.585 0.7955
                        CHANNELS 3 Zrotation Xrotation Yrotation
                        End Site
                        {
                          OFFSET 0.0081 -0.0158 0.008
                        }
                      }
                    }
                  }
                }
              }
            }
          }
        }
        JOINT rCollar
        {
          OFFSET -1.7069 20.075 5.0056
          CHANNELS 3 Zrotation Xrotation Yrotation
          JOINT rShldr
          {
            OFFSET -13.6458 -0.047 -4.849
            CHANNELS 3 Zrotation Xrotation Yrotation
            JOINT rForeArm
            {
              OFFSET -28.3255 -0.9759 2.2888
              CHANNELS 3 Zrotation Xrotation Yrotation
              JOINT rHand
              {
                OFFSET -22.1583 -0.53 10.8316
                CHANNELS 3 Zrotation Xrotation Yrotation
                JOINT rThumb1
                {
                  OFFSET -0.786 0.112 2.5817
                  CHANNELS 3 Zrotation Xrotation Yrotation
                  JOINT rThumb2
                  {
                    OFFSET -0.3601 -0.878 4.2331
                    CHANNELS 3 Zrotation Xrotation Yrotation
                    JOINT rThumb2_End
                    {
                      OFFSET -1.8127 -1.216 2.2227
                      CHANNELS 3 Zrotation Xrotation Yrotation
                      End Site
                      {
                        OFFSET -0.0181 -0.0122 0.0222
                      }
                    }
                  }
                }
                JOINT rCarpal1
                {
                  OFFSET -0.9571 1.114 1.7695
                  CHANNELS 3 Zrotation Xrotation Yrotation
                  JOINT rIndex1
                  {
                    OFFSET -4.1246 0.487 4.1451
                    CHANNELS 3 Zrotation Xrotation Yrotation
                    JOINT rIndex2
                    {
                      OFFSET -3.4052 -1.454 2.7682
                      CHANNELS 3 Zrotation Xrotation Yrotation
                      JOINT rIndex2_End
                      {
                        OFFSET -1.4531 -1.795 1.2713
                        CHANNELS 3 Zrotation Xrotation Yrotation
                        End Site
                        {
                          OFFSET -0.0145 -0.018 0.0127
                        }
                      }
                    }
                  }
                  JOINT rMid1
                  {
                    OFFSET -5.6954 0.21 2.1184
                    CHANNELS 3 Zrotation Xrotation Yrotation
                    JOINT rMid2
                    {
                      OFFSET -3.9766 -1.54 2.3863
                      CHANNELS 3 Zrotation Xrotation Yrotation
                      JOINT rMid2_End
                      {
                        OFFSET -1.4042 -1.926 1.125
                        CHANNELS 3 Zrotation Xrotation Yrotation
                        End Site
                        {
                          OFFSET -0.014 -0.0193 0.0113
                        }
                      }
                    }
                  }
                }
                JOINT rCarpal2
                {
                  OFFSET -2.0956 0.66 -0.3894
                  CHANNELS 3 Zrotation Xrotation Yrotation
                  JOINT rRing1
                  {
                    OFFSET -5.0395 -0.09 2.4971
                    CHANNELS 3 Zrotation Xrotation Yrotation
                    JOINT rRing2
                    {
                      OFFSET -3.7921 -1.552 1.4806
                      CHANNELS 3 Zrotation Xrotation Yrotation
                      JOINT rRing2_End
                      {
                        OFFSET -1.4655 -1.808 0.9609
                        CHANNELS 3 Zrotation Xrotation Yrotation
                        End Site
                        {
                          OFFSET -0.0147 -0.0181 0.0096
                        }
                      }
                    }
                  }
                  JOINT rPinky1
                  {
                    OFFSET -4.9141 -1.269 0.3592
                    CHANNELS 3 Zrotation Xrotation Yrotation
                    JOINT rPinky2
                    {
                      OFFSET -3.1477 -1.685 0.8462
                      CHANNELS 3 Zrotation Xrotation Yrotation
                      JOINT rPinky2_End
                      {
                        OFFSET -0.8055 -1.585 0.7955
                        CHANNELS 3 Zrotation Xrotation Yrotation
                        End Site
                        {
                          OFFSET -0.0081 -0.0158 0.008
                        }
                      }
                    }
                  }
                }
              }
            }
          }
        }
      }
    }
  }
  JOINT lThigh
  {
    OFFSET 8.367 -8.2066 0.5982
    CHANNELS 3 Zrotation Xrotation Yrotation
    JOINT lShin
    {
      OFFSET 2.1923 -43.463 -0.4932
      CHANNELS 3 Zrotation Xrotation Yrotation
      JOINT lFoot
      {
        OFFSET 0.7333 -45.8593 -2.6451
        CHANNELS 3 Zrotation Xrotation Yrotation
        End Site
        {
          OFFSET 2.6618 -4.2699 12.3931
        }
      }
    }
  }
  JOINT rThigh
  {
    OFFSET -8.367 -8.2066 0.5982
    CHANNELS 3 Zrotation Xrotation Yrotation
    JOINT rShin
    {
      OFFSET -2.1923 -43.463 -0.4931
      CHANNELS 3 Zrotation Xrotation Yrotation
      JOINT rFoot
      {
        OFFSET -0.7333 -45.8593 -2.6451
        CHANNELS 3 Zrotation Xrotation Yrotation
        End Site
        {
          OFFSET -2.6618 -4.2699 12.3931
        }
      }
    }
  }
}
MOTION
Frames:	4
Frame Time:	0.0333333
0 91.7903 2.51682 0 0 -0 0 0 -0 0 0 -0 0 0 -0 0 0 -0 0 0 -0 0 0 -0 1.66051 0.0835086 5.75766 -0.0175111 0.895433 15.7816 7.95139e-016 -1.98785e-016 -0 5.46658e-016 -3.97569e-016 -0 5.96354e-016 0 -0 3.97569e-016 1.98785e-016 9.54166e-015 1.49089e-016 -3.97569e-016 -0 6.4605e-016 0 3.18055e-015 5.96354e-016 0 3.18055e-015 8.94531e-016 -1.98785e-016 6.36111e-015 6.4605e-016 0 3.18055e-015 5.96354e-016 0 3.18055e-015 8.94531e-016 -1.98785e-016 6.36111e-015 1.49089e-016 -3.97569e-016 -0 6.4605e-016 0 3.18055e-015 5.96354e-016 0 3.18055e-015 8.94531e-016 -1.98785e-016 6.36111e-015 6.4605e-016 0 3.18055e-015 5.96354e-016 0 3.18055e-015 8.94531e-016 -1.98785e-016 6.36111e-015 0 0 -0 -1.4496 0.0636048 -5.0245 -1.74811 1.20616 -16.8394 -1.19271e-015 1.98785e-016 -3.18055e-015 -3.97569e-016 1.98785e-016 -3.18055e-015 -2.98177e-016 1.98785e-016 -3.18055e-015 -2.98177e-016 3.97569e-016 -0 4.96962e-016 0 -6.36111e-015 -9.93923e-017 3.97569e-016 -0 -8.94531e-016 5.96354e-016 -0 -3.97569e-016 3.97569e-016 -0 -9.93923e-017 3.97569e-016 -0 -8.94531e-016 5.96354e-016 -0 -3.97569e-016 3.97569e-016 -0 4.96962e-016 0 -6.36111e-015 -9.93923e-017 3.97569e-016 -0 -8.94531e-016 5.96354e-016 -0 -3.97569e-016 3.97569e-016 -0 -9.93923e-017 3.97569e-016 -0 -8.94531e-016 5.96354e-016 -0 -3.97569e-016 3.97569e-016 -0 -4.66111 -0.998717 0.12318 0.00986924 1.54847 0.176523 4.65186 -0.572283 -0.254274 4.66111 -0.998765 -0.123176 -0.00986867 1.54869 -0.176537 -4.65186 -0.572453 0.25427 
-2.48023 19.5413 -21.9878 133.329 65.9141 5.19102e-007 -0.0107165 -0.320906 -0.207394 -0.0225734 -0.641745 -0.41484 -0.0225418 -0.641755 -0.414833 0.000604907 32.5914 -0.000307479 -2.34229e-006 -29.4009 3.97814e-006 -14.1058 2.54775 13.2095 -0.0641455 2.46891 -52.4206 -10.7094 -7.15449 -15.4156 -34.2515 -13.3821 -27.4845 -7.57175e-007 1.82272e-006 -1.61217e-006 -1.19271e-015 3.18055e-015 1.59028e-015 -2.82367e-006 -9.11508e-007 2.24092e-006 -2.38542e-015 -6.36111e-015 -0 -7.57175e-007 1.82272e-006 -1.61217e-006 0 3.18055e-015 -0 -2.82367e-006 -9.11508e-007 2.24092e-006 -7.57175e-007 1.82272e-006 -1.61217e-006 0 3.18055e-015 -0 -2.82367e-006 -9.11508e-007 2.24092e-006 -2.38542e-015 -6.36111e-015 -0 -7.57175e-007 1.82272e-006 -1.61217e-006 0 3.18055e-015 -0 -2.82367e-006 -9.11508e-007 2.24092e-006 -7.57175e-007 1.82272e-006 -1.61217e-006 0 3.18055e-015 -0 -2.82367e-006 -9.11508e-007 2.24092e-006 14.0659 2.24377 -12.9935 0.149323 2.59118 53.0108 8.85266 -7.90405 14.0604 34.7451 -13.4242 26.5723 -3.74538e-006 -1.98906e-006 1.87086e-006 -3.44948e-006 9.75326e-007 5.12006e-007 -2.95611e-006 -3.49722e-006 1.26877e-006 -1.98785e-015 9.54166e-015 -3.57812e-015 -3.74538e-006 -1.98906e-006 1.87086e-006 -3.44948e-006 9.75326e-007 5.12006e-007 -2.95611e-006 -3.49722e-006 1.26877e-006 -3.74538e-006 -1.98906e-006 1.87086e-006 -3.44948e-006 9.75326e-007 5.12006e-007 -2.95611e-006 -3.49722e-006 1.26877e-006 -1.98785e-015 9.54166e-015 -3.57812e-015 -3.74538e-006 -1.98906e-006 1.87086e-006 -3.44948e-006 9.75326e-007 5.12006e-007 -2.95611e-006 -3.49722e-006 1.26877e-006 -3.74538e-006 -1.98906e-006 1.87086e-006 -3.44948e-006 9.75326e-007 5.12006e-007 -2.95611e-006 -3.49722e-006 1.26877e-006 26.9736 -21.7121 23.914 7.69016 42.3913 -10.3253 23.3958 43.1187 -24.2348 -27.8907 -21.0601 -23.9 -8.23559 44.5879 10.9987 -21.6879 40.6285 23.0767 
-2.23679 -1.46354 -37.2793 13.3267 84.4214 -180 -0.0264866 -0.403274 -0.300332 -0.0550894 -0.806403 -0.600861 -0.0550898 -0.806418 -0.60086 -0.000307527 47.2577 0.000283436 -1.01957e-006 -43.7675 -1.67734e-006 -20.7263 3.36761 19.2797 0.317829 -0.549933 -78.3284 -18.2356 -8.3464 -30.0708 -54.2573 -13.5136 -39.1522 5.96354e-016 -2.78299e-015 -3.18055e-015 -2.38542e-015 -3.97569e-016 -3.18055e-015 1.03368e-014 0 -0 4.96962e-016 -1.98785e-015 -1.59028e-015 -1.98785e-016 0 6.36111e-015 -1.98785e-016 -3.97569e-016 -0 3.57812e-015 -1.98785e-015 -3.18055e-015 -1.98785e-016 0 6.36111e-015 -1.98785e-016 -3.97569e-016 -0 3.57812e-015 -1.98785e-015 -3.18055e-015 4.96962e-016 -1.98785e-015 -1.59028e-015 -1.98785e-016 0 6.36111e-015 -1.98785e-016 -3.97569e-016 -0 3.57812e-015 -1.98785e-015 -3.18055e-015 -1.98785e-016 0 6.36111e-015 -1.98785e-016 -3.97569e-016 -0 3.57812e-015 -1.98785e-015 -3.18055e-015 20.6193 2.9473 -18.9698 -0.323817 -0.325266 78.8723 16.5467 -9.5769 28.6926 54.919 -13.8142 37.872 -6.55989e-015 0 -0 5.45952e-008 -4.18475e-007 -6.38255e-008 3.97569e-015 1.59028e-015 -0 -6.55989e-015 0 -0 -7.55382e-015 -2.38542e-015 1.11319e-014 5.45952e-008 -4.18475e-007 -6.38255e-008 2.78299e-015 7.95139e-016 -0 -7.55382e-015 -2.38542e-015 1.11319e-014 5.45952e-008 -4.18475e-007 -6.38255e-008 2.78299e-015 7.95139e-016 -0 -6.55989e-015 0 -0 -7.55382e-015 -2.38542e-015 1.11319e-014 5.45952e-008 -4.18475e-007 -6.38255e-008 2.78299e-015 7.95139e-016 -0 -7.55382e-015 -2.38542e-015 1.11319e-014 5.45952e-008 -4.18475e-007 -6.38255e-008 2.78299e-015 7.95139e-016 -0 46.3388 -29.309 37.7271 27.3728 63.2259 -26.9755 46.862 52.9624 -44.6262 -46.5936 -30.3437 -37.9376 -27.7969 63.4902 27.3251 -47.5917 53.5314 45.306 
-1.15044 3.10906 -33.4841 179.994 88.9936 7.52443e-009 -0.0232874 -0.24722 -0.279616 -0.0477817 -0.494347 -0.559341 -0.047782 -0.494339 -0.559341 0.000147228 43.9981 -0.000214452 -3.27373e-008 -43.1028 8.73755e-008 -19.0122 2.70844 18.1672 0.325876 0.379733 -72.6103 -16.673 -8.06844 -27.592 -49.4499 -14.25 -36.7154 -3.06399e-006 1.31516e-006 -4.5817e-007 -2.02827e-006 4.21329e-007 -1.3034e-006 -3.12859e-006 9.16006e-007 -3.23328e-007 -4.77083e-015 1.59028e-015 -3.18055e-015 -3.06399e-006 1.31516e-006 -4.5817e-007 -2.02827e-006 4.21329e-007 -1.3034e-006 -3.12859e-006 9.16006e-007 -3.23328e-007 -3.06399e-006 1.31516e-006 -4.5817e-007 -2.02827e-006 4.21329e-007 -1.3034e-006 -3.12859e-006 9.16006e-007 -3.23328e-007 -4.77083e-015 1.59028e-015 -3.18055e-015 -3.06399e-006 1.31516e-006 -4.5817e-007 -2.02827e-006 4.21329e-007 -1.3034e-006 -3.12859e-006 9.16006e-007 -3.23328e-007 -3.06399e-006 1.31516e-006 -4.5817e-007 -2.02827e-006 4.21329e-007 -1.3034e-006 -3.12859e-006 9.16006e-007 -3.23328e-007 18.9253 2.32185 -17.8969 -0.307731 0.580228 73.1635 14.9443 -9.22111 26.1993 50.078 -14.4751 35.5399 -8.34896e-015 -1.59028e-015 -4.77083e-015 2.38542e-015 3.18055e-015 -1.59028e-015 3.57812e-015 0 -3.18055e-015 -9.14409e-015 -3.18055e-015 -1.59028e-015 -2.38542e-015 -1.59028e-015 1.59028e-015 1.59028e-015 -1.59028e-015 -1.59028e-015 -1.19271e-015 3.18055e-015 -4.77083e-015 -2.38542e-015 -1.59028e-015 1.59028e-015 1.59028e-015 -1.59028e-015 -1.59028e-015 -1.19271e-015 3.18055e-015 -4.77083e-015 -9.14409e-015 -3.18055e-015 -1.59028e-015 -2.38542e-015 -1.59028e-015 1.59028e-015 1.59028e-015 -1.59028e-015 -1.59028e-015 -1.19271e-015 3.18055e-015 -4.77083e-015 -2.38542e-015 -1.59028e-015 1.59028e-015 1.59028e-015 -1.59028e-015 -1.59028e-015 -1.19271e-015 3.18055e-015 -4.77083e-015 41.6338 -28.2479 34.5131 21.1071 59.5142 -21.3949 40.789 51.1622 -39.1939 -41.6416 -28.246 -34.549 -21.1689 59.5046 21.438 -40.8164 51.1214 39.2261 
